/* XPM */
static const char * FSM_smaller_xpm[] = {
"16 16 8 1",
" 	c #000000",
".	c #FFFFFF",
"+	c #DFDFDF",
"@	c #800000",
"#	c #C0C0C0",
"$	c #FF0000",
"%	c #808080",
"&	c #000080",
"                ",
" ... .... ..... ",
"            ... ",
"  ++++++++++ .. ",
"  +@@@++@@@+# . ",
"  +@$@++@$@+# . ",
"  ++++++++++# . ",
"  +@@@@@@@@+# . ",
"  +@$$$$$$@+# . ",
"  +@$$$$$$@+#   ",
"  ++++++++++ %% ",
"            %%# ",
" %%%%%%%%%%%%## ",
" ++++++++++++#  ",
" &+&+&+&+&+&+## ",
"                "};
