/* XPM */
static const char * FSM_xpm[] = {
"48 48 9 1",
" 	c None",
".	c #000000",
"+	c #DFDFDF",
"@	c #EEEEEE",
"#	c #C0C0C0",
"$	c #800000",
"%	c #FF0000",
"&	c #808080",
"*	c #000080",
"                                                ",
"                                                ",
"                                                ",
"                                                ",
"                   ..     ..                    ",
"                   .      .                     ",
"                .............                   ",
"                .++++++++++++.                  ",
"                .+@@+++++@@++#.                 ",
"                .+$$$++++$$$+##.                ",
"                .+$%$++++$%$+##.                ",
"                .+$$$+@@+$$$+##.                ",
"                .++++++++++++##.                ",
"                .+$$$$$$$$$$+##.                ",
"                .+$$%%%%%%%$+##.                ",
"                .+$$%%%%%%%$+##....             ",
"               ..+$$$$$$$$$$+#.&&&.             ",
"              .&.++++++++++++.&&&#.             ",
"             .&&.............&&&##.             ",
"             .&&&&&&&&&&&&&&&&&##......         ",
"         .....@++++++++++++++++#.&#&##&.        ",
"        .&##&.@+*+*+*+++*+*+*++#.&+&+&+.        ",
"        .#&+&.@+*+*+*+++*+*+*++##....#+.        ",
"        .#+...@++++++++++++++++###. .&&.        ",
"        .&&. .@+&&&&&&&&&&&&&++###. .#+.        ",
"        .#+. .@+&@+++++++++@&++###. .&&.        ",
"        .&&. .@+&@++++++++++&++###. .#+.        ",
"        .#+. .@+&@++++++++++&++###. .&&.        ",
"        .&&. .@+&@@+++++@++@&++##.   ..         ",
"         ..  .@+&&&&&&&&&&&&&++#.               ",
"             .@++++++++++++++++.                ",
"             ...................                ",
"               .#+.         .#+.                ",
"               .&&.         .&&.                ",
"               .#+.         .#+.                ",
"               .&&.         .&&.                ",
"               .#+.         .#+.                ",
"               .&&.         .&&.                ",
"              ..#+..       ..#+..               ",
"             .&#..#&.     .&#..#&.              ",
"            .&#&&&&#&.   .&#&&&&#&.             ",
"            .&&&&&##&.   .&&&&&##&.             ",
"            .&#&&&##&.   .&#&&&##&.             ",
"             ........     ........              ",
"                                                ",
"                                                ",
"                                                ",
"                                                "};
