/* XPM */
static const char * FSM_med_xpm[] = {
"22 22 14 1",
" 	c None",
".	c #000000",
"+	c #DFDFDF",
"@	c #EEEEEE",
"#	c #C0C0C0",
"$	c #800000",
"%	c #5F5F5F",
"&	c #FF0000",
"*	c #808080",
"=	c #3F3F3F",
"-	c #6F6F6F",
";	c #000080",
">	c #767676",
",	c #373737",
"......................",
"......................",
"..    ............. ..",
"..    .++++++++++++...",
"..    .+@@+++++@@++#..",
"..    .+$$$++++$$$+#%.",
"..    .+$&$++++$&$+#%.",
"..    .+$$$+@@+$$$+#%.",
"..    .++++++++++++#%.",
"..    .+$$$$$$$$$$+#%.",
"..    .+$$&&&&&&&$+#%.",
"..    .+$$&&&&&&&$+#%.",
"..   ..+$$$$$$$$$$+#..",
"..  .*.++++++++++++.=.",
".. .**.............*=.",
".. .****************=.",
"....@+++++++++++++++-.",
".%*.@+;+;+;+++;+;+;+-.",
".-*.@+;+;+;+++;+;+;+-.",
"....@+++++++++++++++-.",
"....>-=============-,.",
"......................"};
